<?xml version="1.0" encoding="UTF-8"?>
<svg version="1.1" xmlns="http://www.w3.org/2000/svg" width="256" height="256">
<path d="M0 0 C-0.33 3.96 -0.66 7.92 -1 12 C-0.13117188 11.95359375 0.73765625 11.9071875 1.6328125 11.859375 C12.84756098 11.50813008 12.84756098 11.50813008 18 16 C19.3191582 16.69429379 20.65053004 17.36663355 22 18 C22.0875127 21.22899426 22.14056146 24.45768116 22.1875 27.6875 C22.21263672 28.59951172 22.23777344 29.51152344 22.26367188 30.45117188 C22.35702951 39.00895523 22.35702951 39.00895523 19 43 C18.01 43.495 18.01 43.495 17 44 C17 44.99 17 45.98 17 47 C17.99 47.495 17.99 47.495 19 48 C19 49.65 19 51.3 19 53 C16.125 53.125 16.125 53.125 13 53 C12.34 52.34 11.68 51.68 11 51 C7.94526076 51 5.73071001 52.61622035 3.0703125 54.02734375 C-1.28087778 56.0715822 -5.20650326 56.25679447 -10 56 C-12.4375 55 -12.4375 55 -14 54 C-11.60236815 56.39763185 -10.66726502 56.34280586 -7.375 56.625 C-6.55773437 56.69976562 -5.74046875 56.77453125 -4.8984375 56.8515625 C-4.27195313 56.90054688 -3.64546875 56.94953125 -3 57 C-3.495 57.99 -3.495 57.99 -4 59 C3.54036387 61.11659337 9.48647597 61.93210694 17 59 C17.33 59.99 17.66 60.98 18 62 C16.22324151 64.87014833 14.97406012 66.64825607 11.75 67.8125 C10.8425 67.874375 9.935 67.93625 9 68 C7.329375 68.185625 7.329375 68.185625 5.625 68.375 C-2.88828507 68.27825812 -11.88425795 63.94720458 -19.5625 60.625 C-23.38827153 59.02826731 -25.93004368 58.71475063 -30 60 C-30 60.66 -30 61.32 -30 62 C-33.15506142 62.93619813 -35.96586502 63.1057123 -39.25 63.0625 C-40.14203125 63.05347656 -41.0340625 63.04445312 -41.953125 63.03515625 C-42.62859375 63.02355469 -43.3040625 63.01195312 -44 63 C-44 60.36 -44 57.72 -44 55 C-43.401875 54.71125 -42.80375 54.4225 -42.1875 54.125 C-39.80672208 52.95257974 -39.80672208 52.95257974 -37 51 C-37 50.67 -37 50.34 -37 50 C-35.35 50 -33.7 50 -32 50 C-31.67 49.34 -31.34 48.68 -31 48 C-30.34 47.01 -29.68 46.02 -29 45 C-28.83286431 42.37468476 -28.83286431 42.37468476 -29 40 C-30.65 40 -32.3 40 -34 40 C-34 39.34 -34 38.68 -34 38 C-35.98 37.01 -37.96 36.02 -40 35 C-40 33.02 -40 31.04 -40 29 C-37.03824877 29.61277612 -35.61941217 30.25372522 -33 32 C-30.93089407 32.02749478 -30.93089407 32.02749478 -28.8125 31.625 C-27.554375 31.41875 -26.29625 31.2125 -25 31 C-23.91681831 25.6787385 -22.847126 20.36513131 -22 15 C-21.34 15 -20.68 15 -20 15 C-20.103125 14.319375 -20.20625 13.63875 -20.3125 12.9375 C-19.86365263 8.71833474 -17.81167825 6.10005551 -15 3 C-12.8125 1.625 -12.8125 1.625 -11 1 C-7.57067929 -0.71466036 -3.78283935 -0.05404056 0 0 Z M-5 5 C-5 6.98 -5 8.96 -5 11 C-4.67 11 -4.34 11 -4 11 C-4 9.02 -4 7.04 -4 5 C-4.33 5 -4.66 5 -5 5 Z M-7 6 C-9.28692024 9.23764755 -9.28692024 9.23764755 -10 13 C-8.68 12.67 -7.36 12.34 -6 12 C-6 10.02 -6 8.04 -6 6 C-6.33 6 -6.66 6 -7 6 Z M-3 16 C-2.67 16.99 -2.34 17.98 -2 19 C-1.34 19 -0.68 19 0 19 C0 20.65 0 22.3 0 24 C-0.99 24.495 -0.99 24.495 -2 25 C-2 26.65 -2 28.3 -2 30 C-2.99 30.495 -2.99 30.495 -4 31 C-4.60185499 32.83158727 -4.60185499 32.83158727 -5 35 C-5.19980469 35.75539063 -5.39960938 36.51078125 -5.60546875 37.2890625 C-5.79753906 38.05992188 -5.98960937 38.83078125 -6.1875 39.625 C-6.38730469 40.40101562 -6.58710938 41.17703125 -6.79296875 41.9765625 C-6.86128906 42.64429688 -6.92960937 43.31203125 -7 44 C-4.29921247 46.70078753 -2.75964828 46.29894358 1 46.3125 C2.60875 46.33763672 2.60875 46.33763672 4.25 46.36328125 C5.1575 46.24339844 6.065 46.12351562 7 46 C8.80188059 43.29717912 9.85355431 41.00941993 11 38 C11.37125 37.278125 11.7425 36.55625 12.125 35.8125 C13.43046599 31.61635931 13.50248059 27.35975806 13 23 C12.34 22.01 11.68 21.02 11 20 C11.33 19.34 11.66 18.68 12 18 C10.70990357 17.49596232 9.41786211 16.99690074 8.125 16.5 C7.40570313 16.2215625 6.68640625 15.943125 5.9453125 15.65625 C2.75836999 14.58113686 0.23295638 15.3193776 -3 16 Z M-22 18 C-21 20 -21 20 -21 20 Z M-5 19 C-4.67 19.66 -4.34 20.32 -4 21 C-3.34 20.34 -2.68 19.68 -2 19 C-2.99 19 -3.98 19 -5 19 Z M-13 23 C-12.67 23.66 -12.34 24.32 -12 25 C-11.67 24.34 -11.34 23.68 -11 23 C-11.66 23 -12.32 23 -13 23 Z M14 23 C14 25.97 14 28.94 14 32 C14.33 32 14.66 32 15 32 C15 29.03 15 26.06 15 23 C14.67 23 14.34 23 14 23 Z M-14 30 C-14.6496875 30.8971875 -14.6496875 30.8971875 -15.3125 31.8125 C-17 34 -17 34 -18.625 35.5 C-20.29922763 37.32643014 -20.4623941 38.59811559 -21 41 C-21.18820313 41.68320313 -21.37640625 42.36640625 -21.5703125 43.0703125 C-22.91134072 47.08470814 -22.91134072 47.08470814 -22 51 C-22.66 51.66 -23.32 52.32 -24 53 C-19.38492226 54.04214691 -19.38492226 54.04214691 -15 53 C-15 52.34 -15 51.68 -15 51 C-14.34 50.67 -13.68 50.34 -13 50 C-13.66 50 -14.32 50 -15 50 C-15.1875 46.6875 -15.1875 46.6875 -15 43 C-14.505 42.525625 -14.01 42.05125 -13.5 41.5625 C-11.78314046 40.08380221 -11.78314046 40.08380221 -11.70703125 37.73828125 C-11.74183594 36.93777344 -11.77664062 36.13726562 -11.8125 35.3125 C-11.83957031 34.50425781 -11.86664063 33.69601563 -11.89453125 32.86328125 C-11.92933594 32.24839844 -11.96414062 31.63351563 -12 31 C-12.66 30.67 -13.32 30.34 -14 30 Z M-11 30 C-10 33 -10 33 -10 33 Z M-30 33 C-30 33.33 -30 33.66 -30 34 C-28.35 34 -26.7 34 -25 34 C-25 33.67 -25 33.34 -25 33 C-26.65 33 -28.3 33 -30 33 Z M-12 33 C-11 36 -11 36 -11 36 Z M20 36 C21 38 21 38 21 38 Z M-15 43 C-14 46 -14 46 -14 46 Z M-5 49 C-3.515 49.99 -3.515 49.99 -2 51 C-0.68 50.34 0.64 49.68 2 49 C-0.31 49 -2.62 49 -5 49 Z M-8 50 C-7.67 50.66 -7.34 51.32 -7 52 C-5.68 51.67 -4.36 51.34 -3 51 C-4.65 50.67 -6.3 50.34 -8 50 Z M-39 58 C-37.68 58.33 -36.36 58.66 -35 59 C-34.34 58.01 -33.68 57.02 -33 56 C-36.18490007 55.7226499 -36.18490007 55.7226499 -39 58 Z " fill="#3B3B3B" transform="translate(136,87)"/>
<path d="M0 0 C2 1 2 1 2.8125 2.875 C3 5 3 5 1.75 6.6875 C0 8 0 8 -3 9 C-3.88411083 10.96154398 -3.88411083 10.96154398 -4.3125 13.3125 C-4.49425781 14.09238281 -4.67601563 14.87226562 -4.86328125 15.67578125 C-5.02293645 18.38991962 -4.39975839 19.70900967 -3 22 C-2.01 21.67 -1.02 21.34 0 21 C-0.50064142 25.33889229 -3.21726171 27.81003171 -6 31 C-7.82289489 33.73434233 -8.74182686 35.81977992 -9.4375 39 C-10 41 -10 41 -12 44 C-12 45.32 -12 46.64 -12 48 C-11.34 48.33 -10.68 48.66 -10 49 C-9.01 49.66 -8.02 50.32 -7 51 C-5.37008764 51.56870064 -3.72169669 52.08594877 -2.0625 52.5625 C-1.20785156 52.81128906 -0.35320312 53.06007812 0.52734375 53.31640625 C2.67818414 53.91103037 4.83201845 54.47183744 7 55 C6.67 55.33 6.34 55.66 6 56 C13.54036387 58.11659337 19.48647597 58.93210694 27 56 C27.33 56.99 27.66 57.98 28 59 C26.22324151 61.87014833 24.97406012 63.64825607 21.75 64.8125 C20.8425 64.874375 19.935 64.93625 19 65 C17.329375 65.185625 17.329375 65.185625 15.625 65.375 C7.11171493 65.27825812 -1.88425795 60.94720458 -9.5625 57.625 C-13.38827153 56.02826731 -15.93004368 55.71475063 -20 57 C-20 57.66 -20 58.32 -20 59 C-23.15506142 59.93619813 -25.96586502 60.1057123 -29.25 60.0625 C-30.14203125 60.05347656 -31.0340625 60.04445312 -31.953125 60.03515625 C-32.62859375 60.02355469 -33.3040625 60.01195312 -34 60 C-34 57.36 -34 54.72 -34 52 C-33.401875 51.71125 -32.80375 51.4225 -32.1875 51.125 C-29.80672208 49.95257974 -29.80672208 49.95257974 -27 48 C-27 47.67 -27 47.34 -27 47 C-25.35 47 -23.7 47 -22 47 C-21.67 46.34 -21.34 45.68 -21 45 C-20.34 44.01 -19.68 43.02 -19 42 C-18.83286431 39.37468476 -18.83286431 39.37468476 -19 37 C-20.65 37 -22.3 37 -24 37 C-24 36.34 -24 35.68 -24 35 C-25.98 34.01 -27.96 33.02 -30 32 C-30 30.02 -30 28.04 -30 26 C-27.03824877 26.61277612 -25.61941217 27.25372522 -23 29 C-20.93089407 29.02749478 -20.93089407 29.02749478 -18.8125 28.625 C-17.554375 28.41875 -16.29625 28.2125 -15 28 C-13.91681831 22.6787385 -12.847126 17.36513131 -12 12 C-11.34 12 -10.68 12 -10 12 C-10.061875 11.236875 -10.12375 10.47375 -10.1875 9.6875 C-10 7 -10 7 -8.8125 5.3125 C-6.66187912 3.75515384 -4.47121639 2.95046784 -2 2 C-1.34 1.34 -0.68 0.68 0 0 Z M-12 15 C-11 17 -11 17 -11 17 Z M-20 30 C-20 30.33 -20 30.66 -20 31 C-18.35 31 -16.7 31 -15 31 C-15 30.67 -15 30.34 -15 30 C-16.65 30 -18.3 30 -20 30 Z M-29 55 C-27.68 55.33 -26.36 55.66 -25 56 C-24.34 55.01 -23.68 54.02 -23 53 C-26.18490007 52.7226499 -26.18490007 52.7226499 -29 55 Z " fill="#191919" transform="translate(126,90)"/>
<path d="M0 0 C0.33 1.32 0.66 2.64 1 4 C1.99 4 2.98 4 4 4 C2.12067156 22.79328437 2.12067156 22.79328437 -2 30 C-0.7625 29.7525 -0.7625 29.7525 0.5 29.5 C4.41272317 28.94103955 8.05183173 28.93192813 12 29 C9.14521674 30.90318884 7.58058692 31.4619099 4.3125 32.125 C3.10013672 32.37636719 3.10013672 32.37636719 1.86328125 32.6328125 C1.24839844 32.75398438 0.63351563 32.87515625 0 33 C0.61488281 32.97679687 1.22976562 32.95359375 1.86328125 32.9296875 C2.67152344 32.91164062 3.47976562 32.89359375 4.3125 32.875 C5.11300781 32.85179687 5.91351563 32.82859375 6.73828125 32.8046875 C9 33 9 33 12 35 C6.74704929 37.21176872 2.80054859 38.55774506 -3 38 C-5.25 37.0625 -5.25 37.0625 -7 36 C-7.99 35.67 -8.98 35.34 -10 35 C-9.34 35 -8.68 35 -8 35 C-8.09539062 34.31292969 -8.19078125 33.62585938 -8.2890625 32.91796875 C-8.39992188 32.01691406 -8.51078125 31.11585938 -8.625 30.1875 C-8.74101563 29.29417969 -8.85703125 28.40085938 -8.9765625 27.48046875 C-9 25 -9 25 -7 22 C-5.78525514 19.00030988 -5.78525514 19.00030988 -6.25 15.6875 C-5.91572936 10.75700813 -4.35143339 9.51491794 -1 6 C-0.67 5.34 -0.34 4.68 0 4 C-0.66 4 -1.32 4 -2 4 C-1.34 2.68 -0.68 1.36 0 0 Z M-4 12 C-3 15 -3 15 -3 15 Z M-5 15 C-4 18 -4 18 -4 18 Z M-8 25 C-7 28 -7 28 -7 28 Z " fill="#181818" transform="translate(129,105)"/>
<path d="M0 0 C4.95 0 9.9 0 15 0 C15.33 1.32 15.66 2.64 16 4 C16 2.68 16 1.36 16 0 C24.91 0 33.82 0 43 0 C43.495 2.475 43.495 2.475 44 5 C43 6 43 6 40.05078125 6.0625 C37.57161094 6.02105097 35.09244421 5.9793866 32.61328125 5.9375 C29.13039051 5.89312404 29.13039051 5.89312404 26.28515625 6.52734375 C21.21713089 7.25651268 16.22472837 6.83569973 11.125 6.5625 C9.52011719 6.48418945 9.52011719 6.48418945 7.8828125 6.40429688 C5.25486761 6.27524601 2.62736387 6.14030848 0 6 C0 4.02 0 2.04 0 0 Z M6 2 C6 2.66 6 3.32 6 4 C6.99 4 7.98 4 9 4 C9 3.34 9 2.68 9 2 C8.01 2 7.02 2 6 2 Z M40 2 C40 2.66 40 3.32 40 4 C40.66 4 41.32 4 42 4 C42 3.34 42 2.68 42 2 C41.34 2 40.68 2 40 2 Z " fill="#3A3A3A" transform="translate(91,168)"/>
<path d="M0 0 C1.32751785 0.00212242 1.32751785 0.00212242 2.68185425 0.00428772 C5.51449941 0.00989485 8.34706614 0.02244854 11.1796875 0.03515625 C13.09765511 0.04017033 15.01562396 0.0447334 16.93359375 0.04882812 C21.64065532 0.05986659 26.3476581 0.077136 31.0546875 0.09765625 C31.0546875 0.75765625 31.0546875 1.41765625 31.0546875 2.09765625 C31.7146875 2.09765625 32.3746875 2.09765625 33.0546875 2.09765625 C32.0546875 4.09765625 32.0546875 4.09765625 30.0546875 5.09765625 C26.99226429 5.184774 23.95282285 5.21314085 20.890625 5.1953125 C19.98341705 5.19389755 19.07620911 5.1924826 18.14151001 5.19102478 C15.23753595 5.18541721 12.33363835 5.17286343 9.4296875 5.16015625 C7.46354278 5.15514223 5.49739685 5.15057915 3.53125 5.14648438 C-1.2943004 5.13544531 -6.11979347 5.1181756 -10.9453125 5.09765625 C-10.9453125 3.77765625 -10.9453125 2.45765625 -10.9453125 1.09765625 C-7.56138242 -0.59430879 -3.72053459 -0.02220924 0 0 Z " fill="#3E3E3E" transform="translate(137.9453125,174.90234375)"/>
<path d="M0 0 C12.21 0 24.42 0 37 0 C37 0.66 37 1.32 37 2 C37.66 2 38.32 2 39 2 C39 2.66 39 3.32 39 4 C34.27399295 4.65186304 29.78077417 5.11118079 25 5 C24.01 5 23.02 5 22 5 C15 5 8 5 1 5 C0.67 3.35 0.34 1.7 0 0 Z " fill="#434343" transform="translate(87,175)"/>
<path d="M0 0 C-2.85478326 1.90318884 -4.41941308 2.4619099 -7.6875 3.125 C-8.49574219 3.29257813 -9.30398437 3.46015625 -10.13671875 3.6328125 C-10.75160156 3.75398437 -11.36648437 3.87515625 -12 4 C-11.38511719 3.97679687 -10.77023438 3.95359375 -10.13671875 3.9296875 C-9.32847656 3.91164062 -8.52023438 3.89359375 -7.6875 3.875 C-6.88699219 3.85179687 -6.08648437 3.82859375 -5.26171875 3.8046875 C-3 4 -3 4 0 6 C-5.25295071 8.21176872 -9.19945141 9.55774506 -15 9 C-17.25 8.0625 -17.25 8.0625 -19 7 C-19.99 6.67 -20.98 6.34 -22 6 C-21.34 6 -20.68 6 -20 6 C-20 5.34 -20 4.68 -20 4 C-18.35 3.67 -16.7 3.34 -15 3 C-15 2.34 -15 1.68 -15 1 C-9.91913204 0.15318867 -5.15171623 -0.09038099 0 0 Z " fill="#242424" transform="translate(141,134)"/>
<path d="M0 0 C5.94 0 11.88 0 18 0 C18.33 1.65 18.66 3.3 19 5 C18 6 18 6 14.40234375 6.09765625 C12.91403133 6.0909822 11.42573568 6.07902183 9.9375 6.0625 C9.17888672 6.05798828 8.42027344 6.05347656 7.63867188 6.04882812 C5.75908129 6.0370068 3.87953101 6.01907078 2 6 C2 5.01 2 4.02 2 3 C1.67 3.66 1.34 4.32 1 5 C-0.32 5 -1.64 5 -3 5 C-3 4.34 -3 3.68 -3 3 C-2.01 3 -1.02 3 0 3 C0 2.01 0 1.02 0 0 Z M15 2 C15 2.66 15 3.32 15 4 C15.66 4 16.32 4 17 4 C17 3.34 17 2.68 17 2 C16.34 2 15.68 2 15 2 Z " fill="#1B1C1C" transform="translate(116,168)"/>
<path d="M0 0 C0.74886475 0.00523682 1.49772949 0.01047363 2.26928711 0.01586914 C3.07817383 0.0190918 3.88706055 0.02231445 4.72045898 0.02563477 C5.5705957 0.03401367 6.42073242 0.04239258 7.29663086 0.05102539 C8.15063477 0.05553711 9.00463867 0.06004883 9.88452148 0.06469727 C12.00108749 0.07652166 14.11761771 0.0944577 16.23413086 0.11352539 C15.90413086 0.77352539 15.57413086 1.43352539 15.23413086 2.11352539 C15.56413086 2.44352539 15.89413086 2.77352539 16.23413086 3.11352539 C16.23413086 4.10352539 16.23413086 5.09352539 16.23413086 6.11352539 C10.29413086 6.11352539 4.35413086 6.11352539 -1.76586914 6.11352539 C-2.09586914 4.46352539 -2.42586914 2.81352539 -2.76586914 1.11352539 C-1.76586914 0.11352539 -1.76586914 0.11352539 0 0 Z M-0.76586914 2.11352539 C0.23413086 4.11352539 0.23413086 4.11352539 0.23413086 4.11352539 Z " fill="#2D2D2D" transform="translate(151.765869140625,167.886474609375)"/>
<path d="M0 0 C7.26 0 14.52 0 22 0 C22 0.66 22 1.32 22 2 C22.66 2 23.32 2 24 2 C23 4 23 4 21 5 C13.06303529 5.75531177 6.9535785 4.93333733 0 1 C0 0.67 0 0.34 0 0 Z " fill="#2D2D2D" transform="translate(147,175)"/>
<path d="M0 0 C1.54763107 0.03306904 3.09488416 0.09247018 4.640625 0.17578125 C5.82978516 0.20961914 5.82978516 0.20961914 7.04296875 0.24414062 C8.9930012 0.30287654 10.94205812 0.39255471 12.890625 0.48828125 C12.890625 1.14828125 12.890625 1.80828125 12.890625 2.48828125 C13.550625 2.48828125 14.210625 2.48828125 14.890625 2.48828125 C14.890625 3.14828125 14.890625 3.80828125 14.890625 4.48828125 C10.16461795 5.14014429 5.67139917 5.59946204 0.890625 5.48828125 C-0.099375 5.48828125 -1.089375 5.48828125 -2.109375 5.48828125 C-4.109375 5.48828125 -6.109375 5.48828125 -8.109375 5.48828125 C-5.88207126 1.68629771 -4.36344268 0.15110224 0 0 Z " fill="#323232" transform="translate(111.109375,174.51171875)"/>
<path d="M0 0 C1.32 0 2.64 0 4 0 C4 1.32 4 2.64 4 4 C4.33 2.68 4.66 1.36 5 0 C7.31 0 9.62 0 12 0 C12.33 1.98 12.66 3.96 13 6 C8.38 6 3.76 6 -1 6 C-0.67 4.02 -0.34 2.04 0 0 Z " fill="#313131" transform="translate(136,168)"/>
<path d="M0 0 C0 3.63 0 7.26 0 11 C-1.65 11.33 -3.3 11.66 -5 12 C-4.34 11.67 -3.68 11.34 -3 11 C-3.33 9.02 -3.66 7.04 -4 5 C-4.66 5 -5.32 5 -6 5 C-6.33 4.34 -6.66 3.68 -7 3 C-7.4125 3.495 -7.825 3.99 -8.25 4.5 C-10 6 -10 6 -14 6 C-13.08486681 3.71216703 -12.34515354 2.26550272 -10.375 0.75 C-6.86146845 -0.35953628 -3.67700382 -0.12256679 0 0 Z M-2 4 C-2 5.98 -2 7.96 -2 10 C-1.67 10 -1.34 10 -1 10 C-1 8.02 -1 6.04 -1 4 C-1.33 4 -1.66 4 -2 4 Z " fill="#2E2E2E" transform="translate(133,88)"/>
<path d="M0 0 C2.97 0 5.94 0 9 0 C8.85966889 1.97956441 8.7125877 3.95865141 8.5625 5.9375 C8.48128906 7.03964844 8.40007812 8.14179687 8.31640625 9.27734375 C8 12 8 12 7 13 C7.66 13.66 8.32 14.32 9 15 C7.02 15.99 7.02 15.99 5 17 C5 16.34 5 15.68 5 15 C3.02 15.33 1.04 15.66 -1 16 C1 14 1 14 3.078125 13.2265625 C5.28873247 12.13039357 5.28873247 12.13039357 5.609375 9.3984375 C5.65578125 8.40070313 5.7021875 7.40296875 5.75 6.375 C5.80671875 5.37210937 5.8634375 4.36921875 5.921875 3.3359375 C5.94765625 2.56507812 5.9734375 1.79421875 6 1 C4.02 1 2.04 1 0 1 C0 0.67 0 0.34 0 0 Z " fill="#4C4C4C" transform="translate(127,87)"/>
<path d="M0 0 C3.3 0 6.6 0 10 0 C10.33 1.32 10.66 2.64 11 4 C11 2.68 11 1.36 11 0 C11.66 0 12.32 0 13 0 C13 0.66 13 1.32 13 2 C13.99 2 14.98 2 16 2 C15.67 2.99 15.34 3.98 15 5 C13.54207116 5.05399736 12.08357288 5.09279177 10.625 5.125 C9.81289062 5.14820313 9.00078125 5.17140625 8.1640625 5.1953125 C6 5 6 5 4 3 C1.93125966 2.3574765 1.93125966 2.3574765 0 2 C0 1.34 0 0.68 0 0 Z " fill="#1F1F1F" transform="translate(96,168)"/>
<path d="M0 0 C0.33 1.98 0.66 3.96 1 6 C0.34 6 -0.32 6 -1 6 C-1 7.98 -1 9.96 -1 12 C-1.66 12 -2.32 12 -3 12 C-3 14.31 -3 16.62 -3 19 C-3.99 19 -4.98 19 -6 19 C-5.855625 17.88625 -5.71125 16.7725 -5.5625 15.625 C-5.24702376 13.17567754 -4.97906318 10.7394114 -4.78125 8.27734375 C-4.7090625 7.38144531 -4.636875 6.48554687 -4.5625 5.5625 C-4.50191406 4.71816406 -4.44132813 3.87382813 -4.37890625 3.00390625 C-4.25386719 2.34261719 -4.12882813 1.68132812 -4 1 C-2 0 -2 0 0 0 Z " fill="#4E4E4E" transform="translate(136,106)"/>
<path d="M0 0 C3.34252724 -0.07427838 5.8035914 -0.06546953 9 1 C9.33 2.32 9.66 3.64 10 5 C7.03 5 4.06 5 1 5 C0.67 3.35 0.34 1.7 0 0 Z " fill="#2F2F2F" transform="translate(87,175)"/>
<path d="M0 0 C2.31 0 4.62 0 7 0 C7 0.99 7 1.98 7 3 C6.01 3 5.02 3 4 3 C4 3.66 4 4.32 4 5 C5.98 4.34 7.96 3.68 10 3 C9.67 3.99 9.34 4.98 9 6 C5.38357376 7.6691198 1.79425988 6.65669883 -2 6 C-1.360625 5.71125 -0.72125 5.4225 -0.0625 5.125 C2.15206079 4.17176549 2.15206079 4.17176549 3 2 C2.01 2 1.02 2 0 2 C0 1.34 0 0.68 0 0 Z " fill="#474747" transform="translate(109,168)"/>
<path d="M0 0 C1.67299959 0.65061095 3.33859237 1.32033324 5 2 C6.9924325 2.37593066 8.9918674 2.71979545 11 3 C10.67 3.66 10.34 4.32 10 5 C8.58376784 5.05447047 7.16691809 5.09300508 5.75 5.125 C4.96109375 5.14820312 4.1721875 5.17140625 3.359375 5.1953125 C0.79268059 4.9828378 -0.7916067 4.28654105 -3 3 C-2 1 -2 1 0 0 Z " fill="#0C0C0C" transform="translate(99,119)"/>
<path d="M0 0 C2.31 0 4.62 0 7 0 C6.67 0.66 6.34 1.32 6 2 C6.33 2.33 6.66 2.66 7 3 C7 3.99 7 4.98 7 6 C5.02 6 3.04 6 1 6 C1 5.01 1 4.02 1 3 C0.34 2.67 -0.32 2.34 -1 2 C-0.67 1.34 -0.34 0.68 0 0 Z " fill="#333333" transform="translate(161,168)"/>
<path d="M0 0 C2.97 0 5.94 0 9 0 C9.38218767 1.65614657 9.71395102 3.32457024 10 5 C9 6 9 6 6.4375 6.0625 C5.2309375 6.0315625 5.2309375 6.0315625 4 6 C4.33 4.68 4.66 3.36 5 2 C4.01 2.33 3.02 2.66 2 3 C1.34 2.67 0.68 2.34 0 2 C0 1.34 0 0.68 0 0 Z M6 2 C6 2.66 6 3.32 6 4 C6.66 4 7.32 4 8 4 C8 3.34 8 2.68 8 2 C7.34 2 6.68 2 6 2 Z " fill="#252525" transform="translate(125,168)"/>
<path d="M0 0 C-8.42857143 3.42857143 -8.42857143 3.42857143 -13 3 C-13 2.34 -13 1.68 -13 1 C-8.55169749 -1.96553501 -4.6635137 -3.04922049 0 0 Z " fill="#1A1A1A" transform="translate(141,140)"/>
<path d="M0 0 C0.99 0 1.98 0 3 0 C3 0.99 3 1.98 3 3 C4.65 3 6.3 3 8 3 C8 3.99 8 4.98 8 6 C5.03 6 2.06 6 -1 6 C-0.67 4.02 -0.34 2.04 0 0 Z " fill="#0A0A0A" transform="translate(93,144)"/>
<path d="M0 0 C1.32 0 2.64 0 4 0 C3.34 2.31 2.68 4.62 2 7 C1.34 7 0.68 7 0 7 C0 9.31 0 11.62 0 14 C-2.59500704 10.10748944 -1.86590203 8.4869469 -1 4 C-0.69096017 2.66082739 -0.37057089 1.32346746 0 0 Z " fill="#2E2E2E" transform="translate(117,117)"/>
<path d="M0 0 C0.66 0 1.32 0 2 0 C1.60196439 2.88575819 1.20990931 3.82189513 -1.0625 5.75 C-1.701875 6.1625 -2.34125 6.575 -3 7 C-3.66 6.34 -4.32 5.68 -5 5 C-5 4.01 -5 3.02 -5 2 C-4.360625 1.855625 -3.72125 1.71125 -3.0625 1.5625 C-1.02454854 1.18992819 -1.02454854 1.18992819 0 0 Z " fill="#232323" transform="translate(124,111)"/>
<path d="M0 0 C-0.33 1.32 -0.66 2.64 -1 4 C-2.98 4 -4.96 4 -7 4 C-7 2.68 -7 1.36 -7 0 C-4.3333581 -1.33332095 -2.83319697 -0.67102033 0 0 Z " fill="#292929" transform="translate(134,176)"/>
<path d="M0 0 C1.4540625 0.0309375 1.4540625 0.0309375 2.9375 0.0625 C2.1875 2 2.1875 2 0.9375 4.0625 C-1.1875 4.8125 -1.1875 4.8125 -3.0625 5.0625 C-3.625 3.125 -3.625 3.125 -4.0625 1.0625 C-3.0625 0.0625 -3.0625 0.0625 0 0 Z " fill="#525252" transform="translate(104.0625,174.9375)"/>
<path d="M0 0 C0.9075 0.103125 1.815 0.20625 2.75 0.3125 C1.76 0.9725 0.77 1.6325 -0.25 2.3125 C-0.58 3.3025 -0.91 4.2925 -1.25 5.3125 C-3.23 5.3125 -5.21 5.3125 -7.25 5.3125 C-4.05 0.38942308 -4.05 0.38942308 0 0 Z " fill="#212121" transform="translate(110.25,174.6875)"/>
<path d="M0 0 C0.66 0 1.32 0 2 0 C2.33 0.66 2.66 1.32 3 2 C4.65 2 6.3 2 8 2 C5.35261084 3.4606285 4.10551666 4 1 4 C1 4.66 1 5.32 1 6 C1.66 6.33 2.32 6.66 3 7 C2.01 7 1.02 7 0 7 C-0.38133299 5.0085944 -0.71325582 3.00720923 -1 1 C-0.67 0.67 -0.34 0.34 0 0 Z " fill="#3A3A39" transform="translate(130,102)"/>
<path d="M0 0 C1.32 0 2.64 0 4 0 C4.33 1.98 4.66 3.96 5 6 C3.35 6 1.7 6 0 6 C0 4.02 0 2.04 0 0 Z " fill="#141414" transform="translate(91,168)"/>
<path d="M0 0 C0.66 0 1.32 0 2 0 C2 0.66 2 1.32 2 2 C2.99 2 3.98 2 5 2 C4.67 2.99 4.34 3.98 4 5 C1.69 5 -0.62 5 -3 5 C-2.01 4.67 -1.02 4.34 0 4 C0 2.68 0 1.36 0 0 Z " fill="#171717" transform="translate(107,168)"/>
<path d="M0 0 C2.97 0.495 2.97 0.495 6 1 C6.33 2.32 6.66 3.64 7 5 C4.03 4.505 4.03 4.505 1 4 C0.67 2.68 0.34 1.36 0 0 Z " fill="#171717" transform="translate(146,135)"/>
<path d="M0 0 C0.99 0 1.98 0 3 0 C3 0.66 3 1.32 3 2 C3.66 2.33 4.32 2.66 5 3 C3.824375 3.680625 3.824375 3.680625 2.625 4.375 C-0.03698031 5.88428742 -0.03698031 5.88428742 -2 8 C-1.125 1.125 -1.125 1.125 0 0 Z " fill="#3D3D3D" transform="translate(123,98)"/>
<path d="M0 0 C2.64 0 5.28 0 8 0 C8 1.32 8 2.64 8 4 C5.64828869 3.40138258 3.3140622 2.73075648 1 2 C0.67 1.34 0.34 0.68 0 0 Z " fill="#232324" transform="translate(147,175)"/>
<path d="M0 0 C-0.66 1.65 -1.32 3.3 -2 5 C-2.66 4.67 -3.32 4.34 -4 4 C-4 3.34 -4 2.68 -4 2 C-4.99 1.67 -5.98 1.34 -7 1 C-3.375 -1.125 -3.375 -1.125 0 0 Z " fill="#434343" transform="translate(154,147)"/>
<path d="M0 0 C3.66881155 0.70554068 6.70450534 2.27735506 10 4 C6.67465243 5.10844919 4.37817425 4.84454356 1 4 C0.67 2.68 0.34 1.36 0 0 Z " fill="#3E3E3E" transform="translate(96,116)"/>
<path d="M0 0 C1.98 0 3.96 0 6 0 C4.68 1.32 3.36 2.64 2 4 C1.01 3.67 0.02 3.34 -1 3 C-0.67 2.01 -0.34 1.02 0 0 Z " fill="#3A3A3A" transform="translate(111,176)"/>
<path d="M0 0 C1.65 0 3.3 0 5 0 C3.75 2 3.75 2 2 4 C0.68 4 -0.64 4 -2 4 C-1.34 2.68 -0.68 1.36 0 0 Z " fill="#3B3B3B" transform="translate(121,90)"/>
<path d="M0 0 C0.33 0.99 0.66 1.98 1 3 C4.63 3 8.26 3 12 3 C12 3.33 12 3.66 12 4 C8.04 4 4.08 4 0 4 C0 2.68 0 1.36 0 0 Z " fill="#515151" transform="translate(136,94)"/>
<path d="M0 0 C3.96 0 7.92 0 12 0 C12 0.33 12 0.66 12 1 C8.04 1 4.08 1 0 1 C0 0.67 0 0.34 0 0 Z " fill="#414141" transform="translate(131,131)"/>
<path d="M0 0 C2.64 0 5.28 0 8 0 C8 0.33 8 0.66 8 1 C5.36 1 2.72 1 0 1 C0 0.67 0 0.34 0 0 Z " fill="#000000" transform="translate(137,156)"/>
<path d="M0 0 C0.33 0 0.66 0 1 0 C1 2.31 1 4.62 1 7 C0.67 7 0.34 7 0 7 C0 4.69 0 2.38 0 0 Z " fill="#000000" transform="translate(89,168)"/>
<path d="M0 0 C2.31 0 4.62 0 7 0 C7 0.33 7 0.66 7 1 C4.69 1 2.38 1 0 1 C0 0.67 0 0.34 0 0 Z " fill="#000000" transform="translate(95,151)"/>
<path d="M0 0 C2.31 0 4.62 0 7 0 C7 0.33 7 0.66 7 1 C4.69 1 2.38 1 0 1 C0 0.67 0 0.34 0 0 Z " fill="#242424" transform="translate(140,147)"/>
<path d="M0 0 C2.31 0 4.62 0 7 0 C7 0.33 7 0.66 7 1 C4.69 1 2.38 1 0 1 C0 0.67 0 0.34 0 0 Z " fill="#454545" transform="translate(127,85)"/>
<path d="M0 0 C0.33 0 0.66 0 1 0 C1 1.98 1 3.96 1 6 C0.67 6 0.34 6 0 6 C0 4.02 0 2.04 0 0 Z " fill="#000000" transform="translate(159,112)"/>
<path d="M0 0 C1.65 0 3.3 0 5 0 C5 0.33 5 0.66 5 1 C3.35 1 1.7 1 0 1 C0 0.67 0 0.34 0 0 Z " fill="#000000" transform="translate(163,181)"/>
<path d="M0 0 C1.65 0 3.3 0 5 0 C5 0.33 5 0.66 5 1 C3.35 1 1.7 1 0 1 C0 0.67 0 0.34 0 0 Z " fill="#000000" transform="translate(96,166)"/>
<path d="M0 0 C0.33 0 0.66 0 1 0 C1 1.65 1 3.3 1 5 C0.67 5 0.34 5 0 5 C0 3.35 0 1.7 0 0 Z " fill="#4C4C4C" transform="translate(158,107)"/>
<path d="M0 0 C4 1 4 1 4 1 Z " fill="#000000" transform="translate(104,181)"/>
<path d="M0 0 C4 1 4 1 4 1 Z " fill="#000000" transform="translate(93,181)"/>
<path d="M0 0 C4 1 4 1 4 1 Z " fill="#000000" transform="translate(150,166)"/>
<path d="M0 0 C4 1 4 1 4 1 Z " fill="#000000" transform="translate(136,166)"/>
<path d="M0 0 C4 1 4 1 4 1 Z " fill="#000000" transform="translate(130,166)"/>
<path d="M0 0 C4 1 4 1 4 1 Z " fill="#000000" transform="translate(107,166)"/>
<path d="M0 0 C4 1 4 1 4 1 Z " fill="#353535" transform="translate(136,146)"/>
<path d="M0 0 C1 4 1 4 1 4 Z " fill="#000000" transform="translate(91,144)"/>
<path d="M0 0 C4 1 4 1 4 1 Z " fill="#000000" transform="translate(133,143)"/>
<path d="M0 0 C1 4 1 4 1 4 Z " fill="#3F3F3F" transform="translate(158,118)"/>
<path d="M0 0 C1 4 1 4 1 4 Z " fill="#000000" transform="translate(110,114)"/>
<path d="M0 0 C4 1 4 1 4 1 Z " fill="#0F0F0F" transform="translate(140,104)"/>
<path d="M0 0 C3 1 3 1 3 1 Z " fill="#000000" transform="translate(156,181)"/>
<path d="M0 0 C3 1 3 1 3 1 Z " fill="#000000" transform="translate(147,181)"/>
<path d="M0 0 C3 1 3 1 3 1 Z " fill="#000000" transform="translate(98,181)"/>
<path d="M0 0 C3 1 3 1 3 1 Z " fill="#000000" transform="translate(133,155)"/>
<path d="M0 0 C3 1 3 1 3 1 Z " fill="#000000" transform="translate(127,153)"/>
<path d="M0 0 C3 1 3 1 3 1 Z " fill="#000000" transform="translate(124,152)"/>
<path d="M0 0 C3 1 3 1 3 1 Z " fill="#000000" transform="translate(112,147)"/>
<path d="M0 0 C3 1 3 1 3 1 Z " fill="#000000" transform="translate(109,146)"/>
<path d="M0 0 C3 1 3 1 3 1 Z " fill="#1C1C1C" transform="translate(133,145)"/>
<path d="M0 0 C3 1 3 1 3 1 Z " fill="#717171" transform="translate(116,139)"/>
<path d="" fill="#000000" transform="translate(0,0)"/>
<path d="" fill="#000000" transform="translate(0,0)"/>
<path d="" fill="#151515" transform="translate(0,0)"/>
<path d="" fill="#000000" transform="translate(0,0)"/>
<path d="" fill="#3F3F3F" transform="translate(0,0)"/>
<path d="" fill="#151515" transform="translate(0,0)"/>
<path d="" fill="#000000" transform="translate(0,0)"/>
<path d="" fill="#3F3F3F" transform="translate(0,0)"/>
<path d="" fill="#3F3F3F" transform="translate(0,0)"/>
<path d="M0 0 C3 1 3 1 3 1 Z " fill="#2A2A2A" transform="translate(103,118)"/>
<path d="" fill="#000000" transform="translate(0,0)"/>
<path d="" fill="#3F3F3F" transform="translate(0,0)"/>
<path d="" fill="#000000" transform="translate(0,0)"/>
<path d="" fill="#000000" transform="translate(0,0)"/>
<path d="" fill="#6A6A6A" transform="translate(0,0)"/>
<path d="" fill="#313131" transform="translate(0,0)"/>
<path d="M0 0 C2 1 2 1 2 1 Z " fill="#000000" transform="translate(160,181)"/>
<path d="M0 0 C2 1 2 1 2 1 Z " fill="#000000" transform="translate(152,181)"/>
<path d="M0 0 C2 1 2 1 2 1 Z " fill="#000000" transform="translate(121,181)"/>
<path d="M0 0 C2 1 2 1 2 1 Z " fill="#000000" transform="translate(116,180)"/>
<path d="M0 0 C2 1 2 1 2 1 Z " fill="#000000" transform="translate(113,180)"/>
<path d="" fill="#2A2A2A" transform="translate(0,0)"/>
<path d="M0 0 C2 1 2 1 2 1 Z " fill="#00552A" transform="translate(125,175)"/>
<path d="M0 0 C2 1 2 1 2 1 Z " fill="#000000" transform="translate(164,166)"/>
<path d="M0 0 C2 1 2 1 2 1 Z " fill="#000000" transform="translate(155,166)"/>
<path d="M0 0 C2 1 2 1 2 1 Z " fill="#000000" transform="translate(146,166)"/>
<path d="M0 0 C2 1 2 1 2 1 Z " fill="#000000" transform="translate(141,166)"/>
<path d="M0 0 C2 1 2 1 2 1 Z " fill="#000000" transform="translate(127,166)"/>
<path d="M0 0 C2 1 2 1 2 1 Z " fill="#000000" transform="translate(120,166)"/>
<path d="M0 0 C2 1 2 1 2 1 Z " fill="#000000" transform="translate(115,166)"/>
<path d="M0 0 C2 1 2 1 2 1 Z " fill="#000000" transform="translate(102,166)"/>
<path d="M0 0 C2 1 2 1 2 1 Z " fill="#000000" transform="translate(145,155)"/>
<path d="M0 0 C2 1 2 1 2 1 Z " fill="#000000" transform="translate(130,154)"/>
<path d="M0 0 C2 1 2 1 2 1 Z " fill="#000000" transform="translate(122,151)"/>
<path d="M0 0 C2 1 2 1 2 1 Z " fill="#000000" transform="translate(120,150)"/>
<path d="M0 0 C2 1 2 1 2 1 Z " fill="#000000" transform="translate(117,149)"/>
<path d="M0 0 C2 1 2 1 2 1 Z " fill="#000000" transform="translate(115,148)"/>
<path d="M0 0 C2 1 2 1 2 1 Z " fill="#1F1F1F" transform="translate(147,146)"/>
<path d="M0 0 C2 1 2 1 2 1 Z " fill="#000000" transform="translate(149,145)"/>
<path d="M0 0 C2 1 2 1 2 1 Z " fill="#000000" transform="translate(137,142)"/>
<path d="M0 0 C2 1 2 1 2 1 Z " fill="#000000" transform="translate(151,141)"/>
<path d="M0 0 C2 1 2 1 2 1 Z " fill="#000000" transform="translate(143,139)"/>
<path d="M0 0 C2 1 2 1 2 1 Z " fill="#000000" transform="translate(97,138)"/>
<path d="" fill="#2A2A2A" transform="translate(0,0)"/>
<path d="M0 0 C2 1 2 1 2 1 Z " fill="#000000" transform="translate(100,125)"/>
<path d="M0 0 C2 1 2 1 2 1 Z " fill="#191919" transform="translate(101,117)"/>
<path d="M0 0 C2 1 2 1 2 1 Z " fill="#000000" transform="translate(97,114)"/>
<path d="M0 0 C2 1 2 1 2 1 Z " fill="#1F1F1F" transform="translate(144,105)"/>
<path d="" fill="#000000" transform="translate(0,0)"/>
<path d="M0 0 C2 1 2 1 2 1 Z " fill="#3F3F3F" transform="translate(150,99)"/>
<path d="M0 0 C2 1 2 1 2 1 Z " fill="#5F5F5F" transform="translate(148,98)"/>
<path d="M0 0 C2 1 2 1 2 1 Z " fill="#000000" transform="translate(125,86)"/>
<path d="" fill="#000000" transform="translate(0,0)"/>
<path d="" fill="#000000" transform="translate(0,0)"/>
<path d="" fill="#000000" transform="translate(0,0)"/>
<path d="" fill="#000000" transform="translate(0,0)"/>
<path d="" fill="#000000" transform="translate(0,0)"/>
<path d="" fill="#000000" transform="translate(0,0)"/>
<path d="" fill="#000000" transform="translate(0,0)"/>
<path d="" fill="#000000" transform="translate(0,0)"/>
<path d="" fill="#000000" transform="translate(0,0)"/>
<path d="" fill="#000000" transform="translate(0,0)"/>
<path d="" fill="#000000" transform="translate(0,0)"/>
<path d="" fill="#000000" transform="translate(0,0)"/>
<path d="" fill="#555555" transform="translate(0,0)"/>
<path d="" fill="#000000" transform="translate(0,0)"/>
<path d="" fill="#000000" transform="translate(0,0)"/>
<path d="" fill="#000000" transform="translate(0,0)"/>
<path d="" fill="#000000" transform="translate(0,0)"/>
<path d="" fill="#000000" transform="translate(0,0)"/>
<path d="" fill="#000000" transform="translate(0,0)"/>
<path d="" fill="#000000" transform="translate(0,0)"/>
<path d="" fill="#000000" transform="translate(0,0)"/>
<path d="" fill="#000000" transform="translate(0,0)"/>
<path d="" fill="#000000" transform="translate(0,0)"/>
<path d="" fill="#000000" transform="translate(0,0)"/>
<path d="" fill="#000000" transform="translate(0,0)"/>
<path d="" fill="#000000" transform="translate(0,0)"/>
<path d="" fill="#000000" transform="translate(0,0)"/>
<path d="" fill="#000000" transform="translate(0,0)"/>
<path d="" fill="#000000" transform="translate(0,0)"/>
<path d="" fill="#000000" transform="translate(0,0)"/>
<path d="" fill="#000000" transform="translate(0,0)"/>
<path d="" fill="#000000" transform="translate(0,0)"/>
<path d="" fill="#000000" transform="translate(0,0)"/>
<path d="" fill="#000000" transform="translate(0,0)"/>
<path d="" fill="#000000" transform="translate(0,0)"/>
<path d="" fill="#000000" transform="translate(0,0)"/>
<path d="" fill="#000000" transform="translate(0,0)"/>
<path d="" fill="#000000" transform="translate(0,0)"/>
<path d="" fill="#000000" transform="translate(0,0)"/>
<path d="" fill="#555555" transform="translate(0,0)"/>
<path d="" fill="#000000" transform="translate(0,0)"/>
<path d="" fill="#000000" transform="translate(0,0)"/>
<path d="" fill="#000000" transform="translate(0,0)"/>
<path d="" fill="#000000" transform="translate(0,0)"/>
<path d="" fill="#000000" transform="translate(0,0)"/>
<path d="" fill="#000000" transform="translate(0,0)"/>
<path d="" fill="#000000" transform="translate(0,0)"/>
<path d="" fill="#555555" transform="translate(0,0)"/>
<path d="" fill="#000000" transform="translate(0,0)"/>
<path d="" fill="#000000" transform="translate(0,0)"/>
<path d="" fill="#000000" transform="translate(0,0)"/>
<path d="" fill="#000000" transform="translate(0,0)"/>
<path d="" fill="#000000" transform="translate(0,0)"/>
<path d="" fill="#000000" transform="translate(0,0)"/>
<path d="" fill="#555555" transform="translate(0,0)"/>
<path d="" fill="#000000" transform="translate(0,0)"/>
<path d="" fill="#555555" transform="translate(0,0)"/>
<path d="" fill="#FFFFFF" transform="translate(0,0)"/>
<path d="" fill="#555555" transform="translate(0,0)"/>
<path d="" fill="#555555" transform="translate(0,0)"/>
<path d="" fill="#555555" transform="translate(0,0)"/>
<path d="" fill="#555555" transform="translate(0,0)"/>
<path d="" fill="#7F7F7F" transform="translate(0,0)"/>
<path d="" fill="#000000" transform="translate(0,0)"/>
</svg>
